<svg width="137" height="137" viewBox="0 0 137 137" fill="none" xmlns="http://www.w3.org/2000/svg">
<g id="btn-play" clip-path="url(#clip0_349_484)">
<g id="vuesax/linear/video-circle">
<g id="video-circle">
<path id="Vector" d="M52.1301 68.4956V60.1526C52.1301 49.3856 59.7403 45.0449 69.0417 50.4003L76.2573 54.5718L83.4729 58.7433C92.7743 64.0986 92.7743 72.8927 83.4729 78.248L76.2573 82.4195L69.0417 86.591C59.7403 91.9464 52.1301 87.5663 52.1301 76.8556V68.4956Z" fill="white" stroke="white" stroke-width="2.53674" stroke-linecap="round" stroke-linejoin="round"/>
<path id="Vector_2" d="M124.85 68.4952C124.85 79.6445 121.544 90.5435 115.35 99.8138C109.156 109.084 100.352 116.309 90.051 120.576C79.7504 124.843 68.4159 125.959 57.4808 123.784C46.5457 121.609 36.5012 116.24 28.6174 108.356C20.7337 100.472 15.3648 90.4279 13.1896 79.4929C11.0145 68.5578 12.1309 57.2233 16.3975 46.9226C20.6642 36.622 27.8895 27.8179 37.1598 21.6237C46.4302 15.4294 57.3291 12.1233 68.4784 12.1233C83.4292 12.1233 97.7676 18.0625 108.339 28.6343C118.911 39.206 124.85 53.5445 124.85 68.4952Z" stroke="white" stroke-width="5.07347" stroke-linecap="round" stroke-linejoin="round"/>
</g>
</g>
</g>
<defs>
<clipPath id="clip0_349_484">
<rect width="135.293" height="135.293" fill="white" transform="translate(0.831787 0.849121)"/>
</clipPath>
</defs>
</svg>
