<svg width="73" height="73" viewBox="0 0 73 73" fill="none" xmlns="http://www.w3.org/2000/svg">
<g id="btnPlay">
<circle id="background" cx="36.5" cy="36.5" r="36.5" fill="#FF0207"/>
<g id="Vector">
<path d="M34.131 50.2911L47.6233 42.5532C49.3553 41.5598 50.3894 39.7798 50.3894 37.792C50.3894 35.8042 49.3553 34.0243 47.6233 33.0309L34.131 25.293C32.3975 24.2986 30.3289 24.3005 28.5969 25.2984C26.8713 26.2928 25.8407 28.0708 25.8407 30.0541V45.53C25.8407 47.5133 26.8713 49.2913 28.5969 50.2857C29.4644 50.7856 30.4164 51.0353 31.3689 51.0353C32.3174 51.0353 33.266 50.7876 34.131 50.2911Z" fill="white"/>
<path d="M34.131 50.2911L47.6233 42.5532C49.3553 41.5598 50.3894 39.7798 50.3894 37.792C50.3894 35.8042 49.3553 34.0243 47.6233 33.0309L34.131 25.293C32.3975 24.2986 30.3289 24.3005 28.5969 25.2984C26.8713 26.2928 25.8407 28.0708 25.8407 30.0541V45.53C25.8407 47.5133 26.8713 49.2913 28.5969 50.2857C29.4644 50.7856 30.4164 51.0353 31.3689 51.0353C32.3174 51.0353 33.266 50.7876 34.131 50.2911Z" stroke="white"/>
</g>
</g>
</svg>
