<svg width="28" height="28" viewBox="0 0 28 28" fill="none" xmlns="http://www.w3.org/2000/svg">
<g id="Frame" clip-path="url(#clip0_349_492)">
<g id="vuesax/linear/maximize-2">
<g id="maximize-2">
<path id="Vector" d="M2.29834 10.6238V7.80517C2.29745 7.13866 2.42808 6.47852 2.68273 5.86258C2.93738 5.24664 3.31105 4.68699 3.78234 4.21569C4.25364 3.7444 4.81329 3.37073 5.42923 3.11608C6.04518 2.86143 6.70531 2.7308 7.37182 2.73169H10.1904" stroke="white" stroke-width="2.53674" stroke-linecap="round" stroke-linejoin="round"/>
<path id="Vector_2" d="M16.9553 2.73169H19.7739C20.4404 2.7308 21.1006 2.86143 21.7165 3.11608C22.3325 3.37073 22.8921 3.7444 23.3634 4.21569C23.8347 4.68699 24.2084 5.24664 24.463 5.86258C24.7177 6.47852 24.8483 7.13866 24.8474 7.80517V10.6238" stroke="white" stroke-width="2.53674" stroke-linecap="round" stroke-linejoin="round"/>
<path id="Vector_3" d="M24.8474 18.5161V20.2073C24.8483 20.8738 24.7177 21.5339 24.463 22.1499C24.2084 22.7658 23.8347 23.3255 23.3634 23.7967C22.8921 24.268 22.3325 24.6417 21.7165 24.8964C21.1006 25.151 20.4404 25.2816 19.7739 25.2807H18.0828" stroke="white" stroke-width="2.53674" stroke-linecap="round" stroke-linejoin="round"/>
<path id="Vector_4" d="M10.1904 25.2807H7.37182C6.70531 25.2816 6.04518 25.151 5.42923 24.8964C4.81329 24.6417 4.25364 24.268 3.78234 23.7967C3.31105 23.3255 2.93738 22.7658 2.68273 22.1499C2.42808 21.5339 2.29745 20.8738 2.29834 20.2073V17.3887" stroke="white" stroke-width="2.53674" stroke-linecap="round" stroke-linejoin="round"/>
</g>
</g>
</g>
<defs>
<clipPath id="clip0_349_492">
<rect width="27.0585" height="27.0585" fill="white" transform="translate(0.043457 0.477051)"/>
</clipPath>
</defs>
</svg>
