<svg width="28" height="28" viewBox="0 0 28 28" fill="none" xmlns="http://www.w3.org/2000/svg">
<g id="Frame" clip-path="url(#clip0_349_500)">
<g id="vuesax/linear/setting-2">
<g id="setting-2">
<path id="Vector" d="M16.9119 14.0063C16.9119 14.6753 16.7135 15.3292 16.3418 15.8855C15.9702 16.4417 15.4419 16.8752 14.8239 17.1312C14.2059 17.3872 13.5258 17.4542 12.8697 17.3237C12.2136 17.1932 11.6109 16.871 11.1379 16.398C10.6649 15.925 10.3427 15.3223 10.2122 14.6662C10.0817 14.0101 10.1487 13.33 10.4047 12.712C10.6607 12.0939 11.0942 11.5657 11.6504 11.194C12.2066 10.8224 12.8606 10.624 13.5295 10.624C14.4266 10.624 15.2869 10.9804 15.9212 11.6147C16.5555 12.249 16.9119 13.1093 16.9119 14.0063Z" stroke="white" stroke-width="2.53674" stroke-linecap="round" stroke-linejoin="round"/>
<path id="Vector_2" d="M2.25464 14.9983V13.014C2.25642 12.4464 2.48268 11.9026 2.88403 11.5013C3.28537 11.0999 3.82919 10.8737 4.39677 10.8719C6.43744 10.8719 7.27174 9.42875 6.24577 7.65867C5.96408 7.16659 5.88897 6.5829 6.03691 6.03554C6.18484 5.48817 6.54376 5.02179 7.03498 4.7386L8.98545 3.62244C9.41617 3.37184 9.9287 3.30233 10.4106 3.42915C10.8925 3.55597 11.3044 3.86876 11.556 4.2989L11.68 4.51311C12.6947 6.28319 14.3633 6.28319 15.3893 4.51311L15.5133 4.2989C15.7649 3.86876 16.1768 3.55597 16.6587 3.42915C17.1406 3.30233 17.6532 3.37184 18.0839 3.62244L20.0343 4.7386C20.5256 5.02179 20.8845 5.48817 21.0324 6.03554C21.1804 6.5829 21.1052 7.16659 20.8236 7.65867C19.7976 9.42875 20.6319 10.8719 22.6726 10.8719C23.2401 10.8737 23.784 11.0999 24.1853 11.5013C24.5866 11.9026 24.8129 12.4464 24.8147 13.014V14.9983C24.8129 15.5659 24.5866 16.1097 24.1853 16.511C23.784 16.9124 23.2401 17.1386 22.6726 17.1404C20.6319 17.1404 19.7976 18.5836 20.8236 20.3536C21.1052 20.8457 21.1804 21.4294 21.0324 21.9768C20.8845 22.5241 20.5256 22.9905 20.0343 23.2737L18.0839 24.3899C17.6532 24.6405 17.1406 24.71 16.6587 24.5831C16.1768 24.4563 15.7649 24.1435 15.5133 23.7134L15.3893 23.4992C14.3746 21.7291 12.706 21.7291 11.68 23.4992L11.556 23.7134C11.3044 24.1435 10.8925 24.4563 10.4106 24.5831C9.9287 24.71 9.41617 24.6405 8.98545 24.3899L7.03498 23.2737C6.54376 22.9905 6.18484 22.5241 6.03691 21.9768C5.88897 21.4294 5.96408 20.8457 6.24577 20.3536C7.27174 18.5836 6.43744 17.1404 4.39677 17.1404C3.82919 17.1386 3.28537 16.9124 2.88403 16.511C2.48268 16.1097 2.25642 15.5659 2.25464 14.9983Z" stroke="white" stroke-width="2.53674" stroke-linecap="round" stroke-linejoin="round"/>
</g>
</g>
</g>
<defs>
<clipPath id="clip0_349_500">
<rect width="27.0585" height="27.0585" fill="white" transform="translate(0 0.477051)"/>
</clipPath>
</defs>
</svg>
