<svg width="30" height="30" viewBox="0 0 30 30" fill="none" xmlns="http://www.w3.org/2000/svg">
<g id="Frame" clip-path="url(#clip0_349_511)">
<g id="vuesax/bold/volume-low">
<g id="volume-low">
<path id="Vector" d="M24.111 20.8508C23.9167 20.8499 23.7278 20.787 23.5719 20.6711C23.3813 20.5281 23.2553 20.3153 23.2216 20.0794C23.1879 19.8435 23.2492 19.6039 23.3922 19.4133C24.3081 18.1847 24.8028 16.6932 24.8028 15.1607C24.8028 13.6283 24.3081 12.1368 23.3922 10.9082C23.3214 10.8138 23.2699 10.7064 23.2406 10.5921C23.2114 10.4778 23.2049 10.3589 23.2216 10.2421C23.2553 10.0062 23.3813 9.79336 23.5719 9.65039C23.7625 9.50743 24.0021 9.44604 24.238 9.47974C24.4739 9.51343 24.6867 9.63946 24.8297 9.83008C25.9788 11.3698 26.5996 13.2395 26.5996 15.1607C26.5996 17.082 25.9788 18.9517 24.8297 20.4914C24.7476 20.6047 24.6394 20.6965 24.5143 20.7591C24.3892 20.8217 24.2508 20.8531 24.111 20.8508Z" fill="white"/>
<path id="Vector_2" d="M19.3433 5.314C18.5693 4.95874 17.713 4.82121 16.8666 4.91619C16.0203 5.01117 15.2158 5.33507 14.5397 5.85306L11.0418 8.04522C10.8035 8.19059 10.5304 8.2692 10.2512 8.27282H8.53822C7.9312 8.20201 7.31602 8.26948 6.73877 8.47019C6.16153 8.6709 5.63719 8.99965 5.20505 9.43179C4.77291 9.86393 4.44416 10.3883 4.24345 10.9655C4.04274 11.5428 3.97527 12.1579 4.04608 12.765V17.5566C3.97527 18.1636 4.04274 18.7788 4.24345 19.356C4.44416 19.9333 4.77291 20.4576 5.20505 20.8897C5.63719 21.3219 6.16153 21.6506 6.73877 21.8513C7.31602 22.0521 7.9312 22.1195 8.53822 22.0487H10.2512C10.5304 22.0523 10.8035 22.1309 11.0418 22.2763L14.5397 24.4685C15.4416 25.0751 16.4961 25.4155 17.5824 25.4508C18.1976 25.4562 18.804 25.3036 19.3433 25.0075C20.0511 24.5393 20.618 23.8871 20.9831 23.121C21.3482 22.3549 21.4978 21.5038 21.4157 20.6591V9.66C21.4973 8.8157 21.3476 7.96511 20.9825 7.19947C20.6174 6.43382 20.0507 5.78203 19.3433 5.314Z" fill="white"/>
</g>
</g>
</g>
<defs>
<clipPath id="clip0_349_511">
<rect width="28.7497" height="28.7497" fill="white" transform="translate(0.9552 0.785889)"/>
</clipPath>
</defs>
</svg>
