<svg width="147" height="33" viewBox="0 0 147 33" fill="none" xmlns="http://www.w3.org/2000/svg">
<g id="Group 8">
<g id="Boosst">
<path d="M20.105 30.0045C18.9686 30.9074 17.4896 31.608 15.6682 32.1062C13.8467 32.6043 11.605 32.8534 8.94286 32.8534C6.29632 32.8534 3.47853 32.6121 0.489502 32.1295V1.35184C3.50967 0.869232 6.12507 0.62793 8.33571 0.62793C10.5619 0.62793 12.3834 0.838096 13.8 1.25843C15.2323 1.67876 16.3999 2.24699 17.3028 2.96311C19.0775 4.34865 19.9649 6.14674 19.9649 8.35738C19.9649 10.5524 19.1632 12.3739 17.5597 13.8217C19.459 14.4133 20.9301 15.5342 21.9732 17.1844C22.9228 18.6633 23.3976 20.3057 23.3976 22.1116C23.3976 23.9019 23.133 25.4353 22.6037 26.7119C22.0899 27.9885 21.257 29.086 20.105 30.0045ZM6.67773 12.9577C7.33158 13.0667 8.1489 13.1211 9.12967 13.1211C10.1104 13.1211 10.9122 12.9966 11.5349 12.7475C12.1732 12.4829 12.6636 12.1559 13.0061 11.7667C13.5665 11.1285 13.8467 10.2411 13.8467 9.10464C13.8467 6.72275 12.4456 5.53181 9.64341 5.53181C8.46025 5.53181 7.47169 5.57851 6.67773 5.67192V12.9577ZM10.1338 17.955C8.8261 17.955 7.67408 18.0406 6.67773 18.2118V27.3891C7.76748 27.6693 8.91172 27.8094 10.1104 27.8094C11.3092 27.8094 12.36 27.6693 13.2629 27.3891C14.1814 27.0933 14.9521 26.6963 15.5748 26.1982C16.8358 25.1707 17.4663 23.863 17.4663 22.2751C17.4663 19.395 15.0221 17.955 10.1338 17.955Z" fill="white" fill-opacity="0.21"/>
<path d="M26.1064 20.1967C26.1064 18.4843 26.3944 16.8497 26.9705 15.2929C27.562 13.7205 28.4027 12.3505 29.4925 11.1829C31.8743 8.66095 34.9646 7.39995 38.7631 7.39995C42.5461 7.39995 45.5507 8.5909 47.7769 10.9728C49.9097 13.2457 50.9761 16.1958 50.9761 19.8231C50.9761 23.4504 49.8786 26.455 47.6835 28.8369C45.3639 31.3589 42.2892 32.6199 38.4595 32.6199C34.5053 32.6199 31.4073 31.3823 29.1655 28.907C27.1261 26.6496 26.1064 23.7462 26.1064 20.1967ZM31.7809 20.0566C31.7809 21.0374 31.9444 21.9871 32.2713 22.9056C32.5982 23.8241 33.0653 24.6102 33.6724 25.2641C34.9646 26.6808 36.6615 27.3891 38.7631 27.3891C40.7091 27.3891 42.2425 26.6963 43.3634 25.3108C44.4532 23.972 44.9981 22.2284 44.9981 20.08C44.9981 17.9005 44.4376 16.1413 43.3167 14.8025C42.118 13.3702 40.4756 12.6541 38.3895 12.6541C36.2723 12.6541 34.6143 13.4169 33.4156 14.9426C32.3258 16.3437 31.7809 18.0484 31.7809 20.0566Z" fill="white" fill-opacity="0.21"/>
<path d="M54.0819 20.1967C54.0819 18.4843 54.3699 16.8497 54.9459 15.2929C55.5375 13.7205 56.3782 12.3505 57.4679 11.1829C59.8498 8.66095 62.94 7.39995 66.7386 7.39995C70.5216 7.39995 73.5262 8.5909 75.7524 10.9728C77.8852 13.2457 78.9516 16.1958 78.9516 19.8231C78.9516 23.4504 77.854 26.455 75.659 28.8369C73.3394 31.3589 70.2647 32.6199 66.435 32.6199C62.4808 32.6199 59.3828 31.3823 57.141 28.907C55.1016 26.6496 54.0819 23.7462 54.0819 20.1967ZM59.7564 20.0566C59.7564 21.0374 59.9199 21.9871 60.2468 22.9056C60.5737 23.8241 61.0407 24.6102 61.6479 25.2641C62.94 26.6808 64.6369 27.3891 66.7386 27.3891C68.6846 27.3891 70.218 26.6963 71.3389 25.3108C72.4286 23.972 72.9735 22.2284 72.9735 20.08C72.9735 17.9005 72.4131 16.1413 71.2922 14.8025C70.0935 13.3702 68.4511 12.6541 66.365 12.6541C64.2477 12.6541 62.5897 13.4169 61.391 14.9426C60.3013 16.3437 59.7564 18.0484 59.7564 20.0566Z" fill="white" fill-opacity="0.21"/>
<path d="M92.0519 32.6199C87.6618 32.6199 84.3536 31.8182 82.1274 30.2147C82.1586 29.7476 82.2053 29.2183 82.2675 28.6268L82.4777 26.9454C82.6022 25.8401 82.6801 25.1551 82.7112 24.8905C82.7424 24.6102 82.7657 24.4623 82.7813 24.4468C82.7969 24.4156 82.9214 24.5402 83.1549 24.8204C83.3884 25.0851 83.8321 25.412 84.486 25.8012C85.1398 26.1904 85.8949 26.5329 86.7511 26.8287C88.6037 27.4669 90.5341 27.7861 92.5423 27.7861C95.2356 27.7861 96.5822 26.8909 96.5822 25.1006C96.5822 24.5246 96.3253 24.0965 95.8116 23.8163C94.8931 23.3492 93.5387 22.999 91.7484 22.7654C89.9736 22.5164 88.518 22.1583 87.3816 21.6913C86.2451 21.2242 85.3188 20.6638 84.6027 20.0099C83.2795 18.7801 82.6178 17.1688 82.6178 15.1761C82.6178 12.7475 83.5519 10.8405 85.42 9.45491C87.2726 8.08494 89.8335 7.39995 93.1028 7.39995C96.3409 7.39995 99.1042 8.31846 101.393 10.1555C101.284 10.5602 101.167 10.9494 101.042 11.3231C100.684 12.3505 100.42 13.09 100.248 13.5415L99.7113 14.9192C99.6802 15.0438 99.6569 15.1061 99.6413 15.1061C99.6102 15.1061 99.4856 14.9426 99.2677 14.6157C98.2869 13.4792 96.7612 12.732 94.6907 12.3739C94.0524 12.2493 93.3986 12.1871 92.7292 12.1871C89.8958 12.1871 88.4791 13.0433 88.4791 14.7558C88.4791 15.3474 88.7749 15.7988 89.3665 16.1102C90.4718 16.7018 91.9819 17.1377 93.8967 17.4179C95.8272 17.6981 97.2905 18.0795 98.2869 18.5621C99.2832 19.0292 100.085 19.5974 100.692 20.2668C101.813 21.4811 102.373 23.0924 102.373 25.1006C102.373 27.2957 101.494 29.0782 99.7347 30.4482C97.8977 31.896 95.3368 32.6199 92.0519 32.6199Z" fill="white" fill-opacity="0.21"/>
<path d="M116.011 32.6199C111.621 32.6199 108.313 31.8182 106.086 30.2147C106.118 29.7476 106.164 29.2183 106.227 28.6268L106.437 26.9454C106.561 25.8401 106.639 25.1551 106.67 24.8905C106.701 24.6102 106.725 24.4623 106.74 24.4468C106.756 24.4156 106.88 24.5402 107.114 24.8204C107.347 25.0851 107.791 25.412 108.445 25.8012C109.099 26.1904 109.854 26.5329 110.71 26.8287C112.563 27.4669 114.493 27.7861 116.501 27.7861C119.195 27.7861 120.541 26.8909 120.541 25.1006C120.541 24.5246 120.284 24.0965 119.771 23.8163C118.852 23.3492 117.498 22.999 115.707 22.7654C113.933 22.5164 112.477 22.1583 111.341 21.6913C110.204 21.2242 109.278 20.6638 108.562 20.0099C107.238 18.7801 106.577 17.1688 106.577 15.1761C106.577 12.7475 107.511 10.8405 109.379 9.45491C111.232 8.08494 113.792 7.39995 117.062 7.39995C120.3 7.39995 123.063 8.31846 125.352 10.1555C125.243 10.5602 125.126 10.9494 125.001 11.3231C124.643 12.3505 124.379 13.09 124.207 13.5415L123.67 14.9192C123.639 15.0438 123.616 15.1061 123.6 15.1061C123.569 15.1061 123.445 14.9426 123.227 14.6157C122.246 13.4792 120.72 12.732 118.65 12.3739C118.011 12.2493 117.358 12.1871 116.688 12.1871C113.855 12.1871 112.438 13.0433 112.438 14.7558C112.438 15.3474 112.734 15.7988 113.325 16.1102C114.431 16.7018 115.941 17.1377 117.856 17.4179C119.786 17.6981 121.249 18.0795 122.246 18.5621C123.242 19.0292 124.044 19.5974 124.651 20.2668C125.772 21.4811 126.332 23.0924 126.332 25.1006C126.332 27.2957 125.453 29.0782 123.694 30.4482C121.857 31.896 119.296 32.6199 116.011 32.6199Z" fill="white" fill-opacity="0.21"/>
<path d="M142.585 27.1322C144.594 27.1322 145.971 26.6107 146.719 25.5677H146.905L146.975 30.9853C146.213 31.7481 144.796 32.2541 142.725 32.5032C142.165 32.581 141.464 32.6199 140.624 32.6199C139.799 32.6199 138.896 32.4642 137.915 32.1529C136.95 31.8415 136.125 31.3356 135.44 30.635C134.023 29.1872 133.315 26.9221 133.315 23.8396V13.2379H129.788C129.773 12.7864 129.765 12.3272 129.765 11.8602V8.26397C129.765 7.99932 129.773 7.86699 129.788 7.86699H133.315V1.21172H139.036V7.86699H145.458V13.2379H139.036V22.7654C139.036 25.2096 139.713 26.6029 141.067 26.9454C141.503 27.07 142.009 27.1322 142.585 27.1322Z" fill="white" fill-opacity="0.21"/>
</g>
</g>
</svg>
