<svg width="19" height="21" viewBox="0 0 19 21" fill="none" xmlns="http://www.w3.org/2000/svg">
<g id="Vector">
<path d="M6.39801 19.9384L16.8106 13.9452C18.1473 13.1757 18.9453 11.7971 18.9453 10.2575C18.9453 8.71787 18.1473 7.33924 16.8106 6.56982L6.39801 0.576546C5.0602 -0.193642 3.46375 -0.192116 2.12708 0.580742C0.795364 1.35093 0 2.72803 0 4.26421V16.2508C0 17.7869 0.795364 19.164 2.12708 19.9342C2.79655 20.3214 3.53127 20.5148 4.26636 20.5148C4.9984 20.5148 5.73044 20.3229 6.39801 19.9384ZM4.44946 3.96209L14.8621 9.95536C14.9796 10.0229 15.0391 10.1247 15.0391 10.2575C15.0391 10.3906 14.9796 10.4921 14.8621 10.5596L4.44946 16.5529C4.32739 16.6231 4.20418 16.6231 4.08249 16.5525C3.96576 16.485 3.90625 16.3835 3.90625 16.2508V4.26421C3.90625 4.13146 3.96538 4.02999 4.08249 3.96247C4.14352 3.92738 4.20494 3.90945 4.26636 3.90945C4.32739 3.90945 4.38881 3.92699 4.44946 3.96209Z" fill="white"/>
<path d="M6.39801 19.9384L16.8106 13.9452C18.1473 13.1757 18.9453 11.7971 18.9453 10.2575C18.9453 8.71787 18.1473 7.33924 16.8106 6.56982L6.39801 0.576546C5.0602 -0.193642 3.46375 -0.192116 2.12708 0.580742C0.795364 1.35093 0 2.72803 0 4.26421V16.2508C0 17.7869 0.795364 19.164 2.12708 19.9342C2.79655 20.3214 3.53127 20.5148 4.26636 20.5148C4.9984 20.5148 5.73044 20.3229 6.39801 19.9384ZM4.44946 3.96209L14.8621 9.95536C14.9796 10.0229 15.0391 10.1247 15.0391 10.2575C15.0391 10.3906 14.9796 10.4921 14.8621 10.5596L4.44946 16.5529C4.32739 16.6231 4.20418 16.6231 4.08249 16.5525C3.96576 16.485 3.90625 16.3835 3.90625 16.2508V4.26421C3.90625 4.13146 3.96538 4.02999 4.08249 3.96247C4.14352 3.92738 4.20494 3.90945 4.26636 3.90945C4.32739 3.90945 4.38881 3.92699 4.44946 3.96209Z" stroke="white"/>
</g>
</svg>
